{"asset":{"version":"2.0","generator":"babylon.js glTF exporter for 3ds max 2019 v1.4.0"},"scene":0,"scenes":[{"nodes":[0,1],"extensions":{}}],"nodes":[{"mesh":0,"translation":[0.0,0.0,0.0],"rotation":[0.0,0.0,0.0,1.0],"scale":[1.0,1.0,1.0],"name":"studiomesh"},{"translation":[0.0,0.0,0.0],"rotation":[0.0,0.0,0.0,1.0],"scale":[1.0,1.0,1.0],"name":"Default light"}],"meshes":[{"primitives":[{"attributes":{"POSITION":1,"NORMAL":2,"TEXCOORD_0":3},"indices":0,"mode":4,"material":0}],"name":"studiomesh"}],"accessors":[{"bufferView":0,"componentType":5123,"count":144,"type":"SCALAR","name":"accessorIndices"},{"bufferView":1,"componentType":5126,"count":144,"max":[1.0,1.5999999,1.0],"min":[-1.0,0.0,-1.0],"type":"VEC3","name":"accessorPositions"},{"bufferView":1,"byteOffset":1728,"componentType":5126,"count":144,"type":"VEC3","name":"accessorNormals"},{"bufferView":2,"componentType":5126,"count":144,"type":"VEC2","name":"accessorUVs"}],"bufferViews":[{"buffer":0,"byteLength":288,"name":"bufferViewScalar"},{"buffer":0,"byteOffset":288,"byteLength":3456,"byteStride":12,"name":"bufferViewFloatVec3"},{"buffer":0,"byteOffset":3744,"byteLength":1152,"byteStride":8,"name":"bufferViewFloatVec2"}],"buffers":[{"uri":"studionogreen.bin","byteLength":4896}],"materials":[{"pbrMetallicRoughness":{"baseColorFactor":[0.5,0.5,0.5,1.0],"metallicFactor":0.0,"roughnessFactor":1.0},"emissiveFactor":[0.0,0.0,0.0],"alphaMode":"OPAQUE","name":"walls"}]}